<svg xmlns="http://www.w3.org/2000/svg" xmlns:xlink="http://www.w3.org/1999/xlink" width="329" height="510" viewBox="0 0 329 510"><defs><clipPath id="a"><rect width="329" height="510" fill="#fff" stroke="#707070" stroke-width="1"/></clipPath><clipPath id="b"><rect width="618.425" height="496.176" fill="none"/></clipPath></defs><g clip-path="url(#a)"><g transform="matrix(0.695, 0.719, -0.719, 0.695, 156.897, -141.693)" clip-path="url(#b)"><g transform="translate(-15141 941)"><rect width="614" height="1" transform="translate(15141 -941)" fill="#007fff"/></g><g transform="translate(-14527 941)"><rect width="614" height="1" transform="translate(15141 -941)" fill="#007fff"/></g><g transform="translate(-15141 946)"><rect width="614" height="1" transform="translate(15141 -941)" fill="#007fff"/></g><g transform="translate(-14527 946)"><rect width="614" height="1" transform="translate(15141 -941)" fill="#007fff"/></g><g transform="translate(-15141 951)"><rect width="614" height="1" transform="translate(15141 -941)" fill="#007fff"/></g><g transform="translate(-14527 951)"><rect width="614" height="1" transform="translate(15141 -941)" fill="#007fff"/></g><g transform="translate(-15141 956)"><rect width="614" height="1" transform="translate(15141 -941)" fill="#007fff"/></g><g transform="translate(-14527 956)"><rect width="614" height="1" transform="translate(15141 -941)" fill="#007fff"/></g><g transform="translate(-15141 961)"><rect width="614" height="1" transform="translate(15141 -941)" fill="#007fff"/></g><g transform="translate(-14527 961)"><rect width="614" height="1" transform="translate(15141 -941)" fill="#007fff"/></g><g transform="translate(-15141 966)"><rect width="614" height="1" transform="translate(15141 -941)" fill="#007fff"/></g><g transform="translate(-14527 966)"><rect width="614" height="1" transform="translate(15141 -941)" fill="#007fff"/></g><g transform="translate(-15141 971)"><rect width="614" height="1" transform="translate(15141 -941)" fill="#007fff"/></g><g transform="translate(-14527 971)"><rect width="614" height="1" transform="translate(15141 -941)" fill="#007fff"/></g><g transform="translate(-15141 976)"><rect width="614" height="1" transform="translate(15141 -941)" fill="#007fff"/></g><g transform="translate(-14527 976)"><rect width="614" height="1" transform="translate(15141 -941)" fill="#007fff"/></g><g transform="translate(-15141 981)"><rect width="614" height="1" transform="translate(15141 -941)" fill="#007fff"/></g><g transform="translate(-14527 981)"><rect width="614" height="1" transform="translate(15141 -941)" fill="#007fff"/></g><g transform="translate(-15141 986)"><rect width="614" height="1" transform="translate(15141 -941)" fill="#007fff"/></g><g transform="translate(-14527 986)"><rect width="614" height="1" transform="translate(15141 -941)" fill="#007fff"/></g><g transform="translate(-15141 991)"><rect width="614" height="1" transform="translate(15141 -941)" fill="#007fff"/></g><g transform="translate(-14527 991)"><rect width="614" height="1" transform="translate(15141 -941)" fill="#007fff"/></g><g transform="translate(-15141 996)"><rect width="614" height="1" transform="translate(15141 -941)" fill="#007fff"/></g><g transform="translate(-14527 996)"><rect width="614" height="1" transform="translate(15141 -941)" fill="#007fff"/></g><g transform="translate(-15141 1001)"><rect width="614" height="1" transform="translate(15141 -941)" fill="#007fff"/></g><g transform="translate(-14527 1001)"><rect width="614" height="1" transform="translate(15141 -941)" fill="#007fff"/></g><g transform="translate(-15141 1006)"><rect width="614" height="1" transform="translate(15141 -941)" fill="#007fff"/></g><g transform="translate(-14527 1006)"><rect width="614" height="1" transform="translate(15141 -941)" fill="#007fff"/></g><g transform="translate(-15141 1011)"><rect width="614" height="1" transform="translate(15141 -941)" fill="#007fff"/></g><g transform="translate(-14527 1011)"><rect width="614" height="1" transform="translate(15141 -941)" fill="#007fff"/></g><g transform="translate(-15141 1016)"><rect width="614" height="1" transform="translate(15141 -941)" fill="#007fff"/></g><g transform="translate(-14527 1016)"><rect width="614" height="1" transform="translate(15141 -941)" fill="#007fff"/></g><g transform="translate(-15141 1021)"><rect width="614" height="1" transform="translate(15141 -941)" fill="#007fff"/></g><g transform="translate(-14527 1021)"><rect width="614" height="1" transform="translate(15141 -941)" fill="#007fff"/></g><g transform="translate(-15141 1026)"><rect width="614" height="1" transform="translate(15141 -941)" fill="#007fff"/></g><g transform="translate(-14527 1026)"><rect width="614" height="1" transform="translate(15141 -941)" fill="#007fff"/></g><g transform="translate(-15141 1031)"><rect width="614" height="1" transform="translate(15141 -941)" fill="#007fff"/></g><g transform="translate(-14527 1031)"><rect width="614" height="1" transform="translate(15141 -941)" fill="#007fff"/></g><g transform="translate(-15141 1036)"><rect width="614" height="1" transform="translate(15141 -941)" fill="#007fff"/></g><g transform="translate(-14527 1036)"><rect width="614" height="1" transform="translate(15141 -941)" fill="#007fff"/></g><g transform="translate(-15141 1041)"><rect width="614" height="1" transform="translate(15141 -941)" fill="#007fff"/></g><g transform="translate(-14527 1041)"><rect width="614" height="1" transform="translate(15141 -941)" fill="#007fff"/></g><g transform="translate(-15141 1046)"><rect width="614" height="1" transform="translate(15141 -941)" fill="#007fff"/></g><g transform="translate(-14527 1046)"><rect width="614" height="1" transform="translate(15141 -941)" fill="#007fff"/></g><g transform="translate(-15141 1051)"><rect width="614" height="1" transform="translate(15141 -941)" fill="#007fff"/></g><g transform="translate(-14527 1051)"><rect width="614" height="1" transform="translate(15141 -941)" fill="#007fff"/></g><g transform="translate(-15141 1056)"><rect width="614" height="1" transform="translate(15141 -941)" fill="#007fff"/></g><g transform="translate(-14527 1056)"><rect width="614" height="1" transform="translate(15141 -941)" fill="#007fff"/></g><g transform="translate(-15141 1061)"><rect width="614" height="1" transform="translate(15141 -941)" fill="#007fff"/></g><g transform="translate(-14527 1061)"><rect width="614" height="1" transform="translate(15141 -941)" fill="#007fff"/></g><g transform="translate(-15141 1066)"><rect width="614" height="1" transform="translate(15141 -941)" fill="#007fff"/></g><g transform="translate(-14527 1066)"><rect width="614" height="1" transform="translate(15141 -941)" fill="#007fff"/></g><g transform="translate(-15141 1071)"><rect width="614" height="1" transform="translate(15141 -941)" fill="#007fff"/></g><g transform="translate(-14527 1071)"><rect width="614" height="1" transform="translate(15141 -941)" fill="#007fff"/></g><g transform="translate(-15141 1076)"><rect width="614" height="1" transform="translate(15141 -941)" fill="#007fff"/></g><g transform="translate(-14527 1076)"><rect width="614" height="1" transform="translate(15141 -941)" fill="#007fff"/></g><g transform="translate(-15141 1081)"><rect width="614" height="1" transform="translate(15141 -941)" fill="#007fff"/></g><g transform="translate(-14527 1081)"><rect width="614" height="1" transform="translate(15141 -941)" fill="#007fff"/></g><g transform="translate(-15141 1086)"><rect width="614" height="1" transform="translate(15141 -941)" fill="#007fff"/></g><g transform="translate(-14527 1086)"><rect width="614" height="1" transform="translate(15141 -941)" fill="#007fff"/></g><g transform="translate(-15141 1091)"><rect width="614" height="1" transform="translate(15141 -941)" fill="#007fff"/></g><g transform="translate(-14527 1091)"><rect width="614" height="1" transform="translate(15141 -941)" fill="#007fff"/></g><g transform="translate(-15141 1096)"><rect width="614" height="1" transform="translate(15141 -941)" fill="#007fff"/></g><g transform="translate(-14527 1096)"><rect width="614" height="1" transform="translate(15141 -941)" fill="#007fff"/></g><g transform="translate(-15141 1101)"><rect width="614" height="1" transform="translate(15141 -941)" fill="#007fff"/></g><g transform="translate(-14527 1101)"><rect width="614" height="1" transform="translate(15141 -941)" fill="#007fff"/></g><g transform="translate(-15141 1106)"><rect width="614" height="1" transform="translate(15141 -941)" fill="#007fff"/></g><g transform="translate(-14527 1106)"><rect width="614" height="1" transform="translate(15141 -941)" fill="#007fff"/></g><g transform="translate(-15141 1111)"><rect width="614" height="1" transform="translate(15141 -941)" fill="#007fff"/></g><g transform="translate(-14527 1111)"><rect width="614" height="1" transform="translate(15141 -941)" fill="#007fff"/></g><g transform="translate(-15141 1116)"><rect width="614" height="1" transform="translate(15141 -941)" fill="#007fff"/></g><g transform="translate(-14527 1116)"><rect width="614" height="1" transform="translate(15141 -941)" fill="#007fff"/></g><g transform="translate(-15141 1121)"><rect width="614" height="1" transform="translate(15141 -941)" fill="#007fff"/></g><g transform="translate(-14527 1121)"><rect width="614" height="1" transform="translate(15141 -941)" fill="#007fff"/></g><g transform="translate(-15141 1126)"><rect width="614" height="1" transform="translate(15141 -941)" fill="#007fff"/></g><g transform="translate(-14527 1126)"><rect width="614" height="1" transform="translate(15141 -941)" fill="#007fff"/></g><g transform="translate(-15141 1131)"><rect width="614" height="1" transform="translate(15141 -941)" fill="#007fff"/></g><g transform="translate(-14527 1131)"><rect width="614" height="1" transform="translate(15141 -941)" fill="#007fff"/></g><g transform="translate(-15141 1136)"><rect width="614" height="1" transform="translate(15141 -941)" fill="#007fff"/></g><g transform="translate(-14527 1136)"><rect width="614" height="1" transform="translate(15141 -941)" fill="#007fff"/></g><g transform="translate(-15141 1141)"><rect width="614" height="1" transform="translate(15141 -941)" fill="#007fff"/></g><g transform="translate(-14527 1141)"><rect width="614" height="1" transform="translate(15141 -941)" fill="#007fff"/></g><g transform="translate(-15141 1146)"><rect width="614" height="1" transform="translate(15141 -941)" fill="#007fff"/></g><g transform="translate(-14527 1146)"><rect width="614" height="1" transform="translate(15141 -941)" fill="#007fff"/></g><g transform="translate(-15141 1151)"><rect width="614" height="1" transform="translate(15141 -941)" fill="#007fff"/></g><g transform="translate(-14527 1151)"><rect width="614" height="1" transform="translate(15141 -941)" fill="#007fff"/></g><g transform="translate(-15141 1156)"><rect width="614" height="1" transform="translate(15141 -941)" fill="#007fff"/></g><g transform="translate(-14527 1156)"><rect width="614" height="1" transform="translate(15141 -941)" fill="#007fff"/></g><g transform="translate(-15141 1161)"><rect width="614" height="1" transform="translate(15141 -941)" fill="#007fff"/></g><g transform="translate(-14527 1161)"><rect width="614" height="1" transform="translate(15141 -941)" fill="#007fff"/></g><g transform="translate(-15141 1166)"><rect width="614" height="1" transform="translate(15141 -941)" fill="#007fff"/></g><g transform="translate(-14527 1166)"><rect width="614" height="1" transform="translate(15141 -941)" fill="#007fff"/></g><g transform="translate(-15141 1171)"><rect width="614" height="1" transform="translate(15141 -941)" fill="#007fff"/></g><g transform="translate(-14527 1171)"><rect width="614" height="1" transform="translate(15141 -941)" fill="#007fff"/></g><g transform="translate(-15141 1176)"><rect width="614" height="1" transform="translate(15141 -941)" fill="#007fff"/></g><g transform="translate(-14527 1176)"><rect width="614" height="1" transform="translate(15141 -941)" fill="#007fff"/></g><g transform="translate(-15141 1181)"><rect width="614" height="1" transform="translate(15141 -941)" fill="#007fff"/></g><g transform="translate(-14527 1181)"><rect width="614" height="1" transform="translate(15141 -941)" fill="#007fff"/></g><g transform="translate(-15141 1186)"><rect width="614" height="1" transform="translate(15141 -941)" fill="#007fff"/></g><g transform="translate(-14527 1186)"><rect width="614" height="1" transform="translate(15141 -941)" fill="#007fff"/></g><g transform="translate(-15141 1191)"><rect width="614" height="1" transform="translate(15141 -941)" fill="#007fff"/></g><g transform="translate(-14527 1191)"><rect width="614" height="1" transform="translate(15141 -941)" fill="#007fff"/></g><g transform="translate(-15141 1196)"><rect width="614" height="1" transform="translate(15141 -941)" fill="#007fff"/></g><g transform="translate(-14527 1196)"><rect width="614" height="1" transform="translate(15141 -941)" fill="#007fff"/></g><g transform="translate(-15141 1201)"><rect width="614" height="1" transform="translate(15141 -941)" fill="#007fff"/></g><g transform="translate(-14527 1201)"><rect width="614" height="1" transform="translate(15141 -941)" fill="#007fff"/></g><g transform="translate(-15141 1206)"><rect width="614" height="1" transform="translate(15141 -941)" fill="#007fff"/></g><g transform="translate(-14527 1206)"><rect width="614" height="1" transform="translate(15141 -941)" fill="#007fff"/></g><g transform="translate(-15141 1211)"><rect width="614" height="1" transform="translate(15141 -941)" fill="#007fff"/></g><g transform="translate(-14527 1211)"><rect width="614" height="1" transform="translate(15141 -941)" fill="#007fff"/></g><g transform="translate(-15141 1216)"><rect width="614" height="1" transform="translate(15141 -941)" fill="#007fff"/></g><g transform="translate(-14527 1216)"><rect width="614" height="1" transform="translate(15141 -941)" fill="#007fff"/></g><g transform="translate(-15141 1221)"><rect width="614" height="1" transform="translate(15141 -941)" fill="#007fff"/></g><g transform="translate(-14527 1221)"><rect width="614" height="1" transform="translate(15141 -941)" fill="#007fff"/></g><g transform="translate(-15141 1226)"><rect width="614" height="1" transform="translate(15141 -941)" fill="#007fff"/></g><g transform="translate(-14527 1226)"><rect width="614" height="1" transform="translate(15141 -941)" fill="#007fff"/></g><g transform="translate(-15141 1231)"><rect width="614" height="1" transform="translate(15141 -941)" fill="#007fff"/></g><g transform="translate(-14527 1231)"><rect width="614" height="1" transform="translate(15141 -941)" fill="#007fff"/></g><g transform="translate(-15141 1236)"><rect width="614" height="1" transform="translate(15141 -941)" fill="#007fff"/></g><g transform="translate(-14527 1236)"><rect width="614" height="1" transform="translate(15141 -941)" fill="#007fff"/></g><g transform="translate(-15141 1241)"><rect width="614" height="1" transform="translate(15141 -941)" fill="#007fff"/></g><g transform="translate(-14527 1241)"><rect width="614" height="1" transform="translate(15141 -941)" fill="#007fff"/></g><g transform="translate(-15141 1246)"><rect width="614" height="1" transform="translate(15141 -941)" fill="#007fff"/></g><g transform="translate(-14527 1246)"><rect width="614" height="1" transform="translate(15141 -941)" fill="#007fff"/></g><g transform="translate(-15141 1251)"><rect width="614" height="1" transform="translate(15141 -941)" fill="#007fff"/></g><g transform="translate(-14527 1251)"><rect width="614" height="1" transform="translate(15141 -941)" fill="#007fff"/></g><g transform="translate(-15141 1256)"><rect width="614" height="1" transform="translate(15141 -941)" fill="#007fff"/></g><g transform="translate(-14527 1256)"><rect width="614" height="1" transform="translate(15141 -941)" fill="#007fff"/></g><g transform="translate(-15141 1261)"><rect width="614" height="1" transform="translate(15141 -941)" fill="#007fff"/></g><g transform="translate(-14527 1261)"><rect width="614" height="1" transform="translate(15141 -941)" fill="#007fff"/></g><g transform="translate(-15141 1266)"><rect width="614" height="1" transform="translate(15141 -941)" fill="#007fff"/></g><g transform="translate(-14527 1266)"><rect width="614" height="1" transform="translate(15141 -941)" fill="#007fff"/></g><g transform="translate(-15141 1271)"><rect width="614" height="1" transform="translate(15141 -941)" fill="#007fff"/></g><g transform="translate(-14527 1271)"><rect width="614" height="1" transform="translate(15141 -941)" fill="#007fff"/></g><g transform="translate(-15141 1276)"><rect width="614" height="1" transform="translate(15141 -941)" fill="#007fff"/></g><g transform="translate(-14527 1276)"><rect width="614" height="1" transform="translate(15141 -941)" fill="#007fff"/></g><g transform="translate(-15141 1281)"><rect width="614" height="1" transform="translate(15141 -941)" fill="#007fff"/></g><g transform="translate(-14527 1281)"><rect width="614" height="1" transform="translate(15141 -941)" fill="#007fff"/></g><g transform="translate(-15141 1286)"><rect width="614" height="1" transform="translate(15141 -941)" fill="#007fff"/></g><g transform="translate(-14527 1286)"><rect width="614" height="1" transform="translate(15141 -941)" fill="#007fff"/></g><g transform="translate(-15141 1291)"><rect width="614" height="1" transform="translate(15141 -941)" fill="#007fff"/></g><g transform="translate(-14527 1291)"><rect width="614" height="1" transform="translate(15141 -941)" fill="#007fff"/></g><g transform="translate(-15141 1296)"><rect width="614" height="1" transform="translate(15141 -941)" fill="#007fff"/></g><g transform="translate(-14527 1296)"><rect width="614" height="1" transform="translate(15141 -941)" fill="#007fff"/></g><g transform="translate(-15141 1301)"><rect width="614" height="1" transform="translate(15141 -941)" fill="#007fff"/></g><g transform="translate(-14527 1301)"><rect width="614" height="1" transform="translate(15141 -941)" fill="#007fff"/></g><g transform="translate(-15141 1306)"><rect width="614" height="1" transform="translate(15141 -941)" fill="#007fff"/></g><g transform="translate(-14527 1306)"><rect width="614" height="1" transform="translate(15141 -941)" fill="#007fff"/></g><g transform="translate(-15141 1311)"><rect width="614" height="1" transform="translate(15141 -941)" fill="#007fff"/></g><g transform="translate(-14527 1311)"><rect width="614" height="1" transform="translate(15141 -941)" fill="#007fff"/></g><g transform="translate(-15141 1316)"><rect width="614" height="1" transform="translate(15141 -941)" fill="#007fff"/></g><g transform="translate(-14527 1316)"><rect width="614" height="1" transform="translate(15141 -941)" fill="#007fff"/></g><g transform="translate(-15141 1321)"><rect width="614" height="1" transform="translate(15141 -941)" fill="#007fff"/></g><g transform="translate(-14527 1321)"><rect width="614" height="1" transform="translate(15141 -941)" fill="#007fff"/></g><g transform="translate(-15141 1326)"><rect width="614" height="1" transform="translate(15141 -941)" fill="#007fff"/></g><g transform="translate(-14527 1326)"><rect width="614" height="1" transform="translate(15141 -941)" fill="#007fff"/></g><g transform="translate(-15141 1331)"><rect width="614" height="1" transform="translate(15141 -941)" fill="#007fff"/></g><g transform="translate(-14527 1331)"><rect width="614" height="1" transform="translate(15141 -941)" fill="#007fff"/></g><g transform="translate(-15141 1336)"><rect width="614" height="1" transform="translate(15141 -941)" fill="#007fff"/></g><g transform="translate(-14527 1336)"><rect width="614" height="1" transform="translate(15141 -941)" fill="#007fff"/></g><g transform="translate(-15141 1341)"><rect width="614" height="1" transform="translate(15141 -941)" fill="#007fff"/></g><g transform="translate(-14527 1341)"><rect width="614" height="1" transform="translate(15141 -941)" fill="#007fff"/></g><g transform="translate(-15141 1346)"><rect width="614" height="1" transform="translate(15141 -941)" fill="#007fff"/></g><g transform="translate(-14527 1346)"><rect width="614" height="1" transform="translate(15141 -941)" fill="#007fff"/></g><g transform="translate(-15141 1351)"><rect width="614" height="1" transform="translate(15141 -941)" fill="#007fff"/></g><g transform="translate(-14527 1351)"><rect width="614" height="1" transform="translate(15141 -941)" fill="#007fff"/></g><g transform="translate(-15141 1356)"><rect width="614" height="1" transform="translate(15141 -941)" fill="#007fff"/></g><g transform="translate(-14527 1356)"><rect width="614" height="1" transform="translate(15141 -941)" fill="#007fff"/></g><g transform="translate(-15141 1361)"><rect width="614" height="1" transform="translate(15141 -941)" fill="#007fff"/></g><g transform="translate(-14527 1361)"><rect width="614" height="1" transform="translate(15141 -941)" fill="#007fff"/></g><g transform="translate(-15141 1366)"><rect width="614" height="1" transform="translate(15141 -941)" fill="#007fff"/></g><g transform="translate(-14527 1366)"><rect width="614" height="1" transform="translate(15141 -941)" fill="#007fff"/></g><g transform="translate(-15141 1371)"><rect width="614" height="1" transform="translate(15141 -941)" fill="#007fff"/></g><g transform="translate(-14527 1371)"><rect width="614" height="1" transform="translate(15141 -941)" fill="#007fff"/></g><g transform="translate(-15141 1376)"><rect width="614" height="1" transform="translate(15141 -941)" fill="#007fff"/></g><g transform="translate(-14527 1376)"><rect width="614" height="1" transform="translate(15141 -941)" fill="#007fff"/></g><g transform="translate(-15141 1381)"><rect width="614" height="1" transform="translate(15141 -941)" fill="#007fff"/></g><g transform="translate(-14527 1381)"><rect width="614" height="1" transform="translate(15141 -941)" fill="#007fff"/></g><g transform="translate(-15141 1386)"><rect width="614" height="1" transform="translate(15141 -941)" fill="#007fff"/></g><g transform="translate(-14527 1386)"><rect width="614" height="1" transform="translate(15141 -941)" fill="#007fff"/></g><g transform="translate(-15141 1391)"><rect width="614" height="1" transform="translate(15141 -941)" fill="#007fff"/></g><g transform="translate(-14527 1391)"><rect width="614" height="1" transform="translate(15141 -941)" fill="#007fff"/></g><g transform="translate(-15141 1396)"><rect width="614" height="1" transform="translate(15141 -941)" fill="#007fff"/></g><g transform="translate(-14527 1396)"><rect width="614" height="1" transform="translate(15141 -941)" fill="#007fff"/></g><g transform="translate(-15141 1401)"><rect width="614" height="1" transform="translate(15141 -941)" fill="#007fff"/></g><g transform="translate(-14527 1401)"><rect width="614" height="1" transform="translate(15141 -941)" fill="#007fff"/></g><g transform="translate(-15141 1406)"><rect width="614" height="1" transform="translate(15141 -941)" fill="#007fff"/></g><g transform="translate(-14527 1406)"><rect width="614" height="1" transform="translate(15141 -941)" fill="#007fff"/></g><g transform="translate(-15141 1411)"><rect width="614" height="1" transform="translate(15141 -941)" fill="#007fff"/></g><g transform="translate(-14527 1411)"><rect width="614" height="1" transform="translate(15141 -941)" fill="#007fff"/></g><g transform="translate(-15141 1416)"><rect width="614" height="1" transform="translate(15141 -941)" fill="#007fff"/></g><g transform="translate(-14527 1416)"><rect width="614" height="1" transform="translate(15141 -941)" fill="#007fff"/></g><g transform="translate(-15141 1421)"><rect width="614" height="1" transform="translate(15141 -941)" fill="#007fff"/></g><g transform="translate(-14527 1421)"><rect width="614" height="1" transform="translate(15141 -941)" fill="#007fff"/></g><g transform="translate(-15141 1426)"><rect width="614" height="1" transform="translate(15141 -941)" fill="#007fff"/></g><g transform="translate(-14527 1426)"><rect width="614" height="1" transform="translate(15141 -941)" fill="#007fff"/></g><g transform="translate(-15141 1431)"><rect width="614" height="1" transform="translate(15141 -941)" fill="#007fff"/></g><g transform="translate(-14527 1431)"><rect width="614" height="1" transform="translate(15141 -941)" fill="#007fff"/></g><g transform="translate(-15141 1436)"><rect width="614" height="1" transform="translate(15141 -941)" fill="#007fff"/></g><g transform="translate(-14527 1436)"><rect width="614" height="1" transform="translate(15141 -941)" fill="#007fff"/></g></g></g></svg>